<svg height="640" viewBox="0 0 480 480" width="640" xmlns="http://www.w3.org/2000/svg"><path d="M456 336h-20.465a31.574 31.574 0 0 0 4.457-16c0-17.672-14.328-32-32-32h-32v-1.703a15.925 15.925 0 0 0-12.265-15.543l-154.399-37.066c-17.863-4.313-36.36 4.132-44.8 20.457a48.001 48.001 0 0 0-43.325-30.36 48.002 48.002 0 0 0-44.93 27.926A47.996 47.996 0 0 0 84.313 304H80a8 8 0 0 0-8 8v24H56v-80c0-13.254-10.746-24-24-24h-8c-13.254 0-24 10.746-24 24v216a8 8 0 0 0 16 0V256a8 8 0 0 1 8-8h8a8 8 0 0 1 8 8v216a8 8 0 0 0 16 0v-40h368v40a8 8 0 0 0 16 0v-80a8 8 0 0 0-16 0v24H56v-64h56a8 8 0 0 0 0-16H88v-16h48v24a8 8 0 0 0 8 8h16v8c.027 22.082 17.918 39.973 40 40h40a8 8 0 0 0 0-16h-40c-13.254 0-24-10.746-24-24v-87.441a23.985 23.985 0 0 1 9.148-18.832 24.013 24.013 0 0 1 20.454-4.489L360 286.297V360c0 13.254-10.746 24-24 24h-24a8 8 0 0 0 0 16h24c22.082-.027 39.973-17.918 40-40v-8h80a8 8 0 0 1 8 8v112a8 8 0 0 0 16 0V360c0-13.254-10.746-24-24-24zM88 272c0-17.672 14.328-32 32-32s32 14.328 32 32-14.328 32-32 32-32-14.328-32-32zm64 64v-24a7.923 7.923 0 0 0-.895-3.512A48.442 48.442 0 0 0 160 298.48V336zm224 0v-32h32c8.836 0 16 7.164 16 16s-7.164 16-16 16zm0 0M304 135.137c.14 20.246 15.387 37.199 35.508 39.472 20.12 2.274 38.765-10.847 43.422-30.554a8.009 8.009 0 0 0-2.137-7.461 7.997 7.997 0 0 0-7.465-2.137 23.818 23.818 0 0 1-22.383-6.32 23.814 23.814 0 0 1-6.312-22.383 8.006 8.006 0 0 0-2.137-7.465 7.997 7.997 0 0 0-7.465-2.137c-18.21 4.098-31.12 20.317-31.031 38.985zm24.406-18.242c2.578 17.507 16.328 31.253 33.832 33.824a23.988 23.988 0 0 1-23.875 7.816 23.998 23.998 0 0 1-17.765-17.762 24.014 24.014 0 0 1 7.808-23.878zm0 0M428 64a8 8 0 0 0-8 8v4h-4a8 8 0 0 0 0 16h4v4a8 8 0 0 0 16 0v-4h4a8 8 0 0 0 0-16h-4v-4a8 8 0 0 0-8-8zm0 0M340 32a8 8 0 0 0-8 8v4h-4a8 8 0 0 0 0 16h4v4a8 8 0 0 0 16 0v-4h4a8 8 0 0 0 0-16h-4v-4a8 8 0 0 0-8-8zm0 0M399.984 40a8 8 0 1 1-16 0 8 8 0 0 1 16 0zm0 0M447.984 160a8 8 0 1 1-16 0 8 8 0 0 1 16 0zm0 0"/><path d="M472 0H280a8 8 0 0 0-8 8v40a8 8 0 0 0 16 0V16h184a8 8 0 0 0 0-16zm0 0M472 192H288v-72a8 8 0 0 0-16 0v80a8 8 0 0 0 8 8h192a8 8 0 0 0 0-16zm0 0M64.602 123.063A7.996 7.996 0 0 0 72 128h40a8 8 0 0 0 0-16H91.305l26.343-26.344a8.007 8.007 0 0 0 1.735-8.715A7.996 7.996 0 0 0 112 72H72a8 8 0 0 0 0 16h20.688l-26.344 26.344a7.992 7.992 0 0 0-1.742 8.719zm0 0M208 56a8 8 0 0 0-8-8h-28.695l34.343-34.344a8.007 8.007 0 0 0 1.735-8.715A7.996 7.996 0 0 0 200 0h-48a8 8 0 0 0 0 16h28.688l-34.352 34.344a7.996 7.996 0 0 0-1.73 8.722A7.993 7.993 0 0 0 152 64h48a8 8 0 0 0 8-8zm0 0M128.8 195.465A7.996 7.996 0 0 0 136 200h32a8 8 0 0 0 0-16h-15.36l21.598-27.008a7.997 7.997 0 0 0 .961-8.457A7.996 7.996 0 0 0 168 144h-32a8 8 0 0 0 0 16h15.352l-21.598 27.008a7.995 7.995 0 0 0-.953 8.457zm0 0"/></svg>